<?xml version="1.0" standalone="no"?>
<!DOCTYPE svg PUBLIC "-//W3C//DTD SVG 20010904//EN"
 "http://www.w3.org/TR/2001/REC-SVG-20010904/DTD/svg10.dtd">
<svg version="1.0" xmlns="http://www.w3.org/2000/svg"
 width="866.000000pt" height="296.000000pt" viewBox="0 0 866.000000 296.000000"
 preserveAspectRatio="xMidYMid meet">

<g transform="translate(0.000000,296.000000) scale(0.100000,-0.100000)"
fill="#000000" stroke="none">
<path d="M4259 1853 c-13 -16 -12 -17 4 -4 9 7 17 15 17 17 0 8 -8 3 -21 -13z"/>
<path d="M4362 1768 c-11 -29 -22 -66 -26 -83 -6 -32 10 -76 32 -83 11 -3 12
0 3 16 -14 26 -14 62 0 118 12 46 29 60 29 22 0 -16 3 -19 11 -11 16 16 7 67
-13 71 -12 2 -22 -12 -36 -50z"/>
<path d="M4169 1763 c-13 -16 -12 -17 4 -4 16 13 21 21 13 21 -2 0 -10 -8 -17
-17z"/>
<path d="M4146 1680 c24 -32 182 -182 163 -155 -8 11 -52 56 -98 100 -46 44
-76 69 -65 55z"/>
<path d="M4504 1587 l-29 -32 30 25 c17 14 32 26 34 28 2 1 2 4 -1 7 -2 3 -18
-10 -34 -28z"/>
<path d="M4340 1487 c0 -9 40 -35 44 -28 3 4 -6 13 -19 19 -14 7 -25 10 -25 9z"/>
<path d="M2443 1383 c9 -2 25 -2 35 0 9 3 1 5 -18 5 -19 0 -27 -2 -17 -5z"/>
<path d="M2769 1381 c8 -5 11 -16 8 -26 -5 -12 -3 -15 12 -10 10 3 24 -1 31
-10 7 -8 19 -15 27 -15 8 0 11 -4 8 -10 -4 -6 7 -10 27 -9 18 1 25 3 16 6 -10
2 -18 9 -18 14 0 21 -66 68 -95 69 -21 0 -26 -3 -16 -9z m56 -29 c-8 -8 -25
10 -19 20 4 6 9 5 15 -3 4 -7 6 -15 4 -17z"/>
<path d="M3143 1379 c10 -6 17 -22 17 -39 0 -19 -6 -30 -17 -33 -10 -3 0 -5
22 -5 22 0 34 2 28 5 -7 2 -13 11 -13 19 0 21 48 17 77 -6 27 -21 58 -26 67
-11 4 5 -2 7 -11 5 -10 -2 -25 0 -33 6 -13 9 -13 12 3 24 41 32 14 46 -86 46
-54 -1 -68 -3 -54 -11z m131 -5 c29 -11 5 -24 -45 -24 -37 0 -49 4 -49 15 0
11 11 15 39 15 22 0 46 -3 55 -6z"/>
<path d="M3783 1379 c9 -5 17 -21 17 -34 0 -13 -8 -29 -17 -34 -15 -8 -11 -10
17 -10 19 0 29 3 23 6 -19 7 -16 60 5 72 13 8 9 10 -23 10 -32 0 -36 -2 -22
-10z"/>
<path d="M4053 1379 c9 -5 17 -21 17 -34 0 -13 -8 -29 -17 -34 -14 -8 -10 -10
22 -10 32 0 36 2 23 10 -19 10 -24 44 -9 53 4 3 30 -10 57 -29 62 -44 74 -44
74 0 0 22 6 38 18 44 13 8 7 10 -28 10 -37 0 -41 -2 -22 -9 15 -6 22 -18 22
-35 0 -34 -16 -32 -74 10 -27 19 -61 35 -75 35 -23 -1 -24 -2 -8 -11z"/>
<path d="M4463 1379 c10 -6 17 -22 17 -39 0 -19 -6 -30 -17 -33 -10 -3 0 -5
22 -5 22 0 34 2 28 5 -7 2 -13 11 -13 18 0 9 16 15 48 18 l47 3 -47 2 c-35 2
-48 6 -48 17 0 19 109 21 129 3 11 -11 13 -10 9 2 -4 12 -25 16 -99 17 -69 2
-89 0 -76 -8z"/>
<path d="M4843 1383 c20 -5 24 -68 5 -76 -7 -3 5 -5 27 -5 22 0 33 2 24 5 -26
6 -30 42 -8 64 19 19 18 19 -23 18 -24 -1 -35 -3 -25 -6z"/>
<path d="M5123 1379 c9 -5 17 -21 17 -34 0 -13 -8 -29 -17 -34 -15 -8 -11 -10
17 -10 19 0 29 3 23 6 -13 5 -18 45 -7 56 3 3 29 -10 56 -29 50 -34 78 -43 78
-24 0 6 -8 10 -18 10 -9 0 -39 16 -66 35 -27 19 -61 35 -75 35 -23 -1 -24 -2
-8 -11z"/>
<path d="M5258 1380 c13 -6 22 -19 23 -32 1 -20 2 -21 6 -3 3 11 12 26 21 33
13 10 9 12 -29 11 -36 0 -40 -2 -21 -9z"/>
<path d="M5528 1383 c6 -2 12 -20 12 -38 0 -18 -6 -36 -12 -38 -7 -3 5 -5 27
-5 22 0 32 2 23 5 -12 3 -18 14 -18 33 0 17 7 33 18 39 13 8 9 10 -23 10 -22
0 -34 -3 -27 -6z"/>
<path d="M5785 1380 c-11 -17 3 -24 19 -11 8 7 27 11 43 9 34 -4 45 -44 17
-65 -16 -11 -13 -13 22 -12 21 1 31 3 22 6 -24 6 -25 61 -2 70 10 3 30 1 46
-5 22 -8 28 -8 25 1 -5 16 -183 22 -192 7z"/>
<path d="M6208 1364 c42 -25 54 -48 30 -57 -7 -3 3 -6 22 -6 27 -1 31 2 20 9
-13 9 -10 15 15 36 17 14 39 29 50 34 16 8 13 9 -15 7 -21 -1 -34 -7 -33 -14
2 -7 -6 -17 -18 -23 -23 -13 -49 2 -49 26 0 9 -12 14 -32 14 l-33 0 43 -26z"/>
<path d="M2392 1368 c-18 -18 -14 -46 7 -58 25 -13 42 -13 19 1 -21 12 -23 40
-6 57 7 7 8 12 2 12 -5 0 -15 -5 -22 -12z"/>
<path d="M2505 1370 c3 -5 10 -10 16 -10 5 0 9 5 9 10 0 6 -7 10 -16 10 -8 0
-12 -4 -9 -10z"/>
<path d="M2730 1314 c-25 -13 -24 -14 15 -13 22 0 34 3 27 6 -6 2 -10 9 -6 14
7 12 -6 10 -36 -7z"/>
<path d="M2490 1310 c-13 -8 -13 -10 2 -10 9 0 20 5 23 10 8 13 -5 13 -25 0z"/>
<path d="M2448 1293 c7 -3 16 -2 19 1 4 3 -2 6 -13 5 -11 0 -14 -3 -6 -6z"/>
</g>
</svg>
